<?xml version="1.0" standalone="no"?>
<!DOCTYPE svg PUBLIC "-//W3C//DTD SVG 20010904//EN"
 "http://www.w3.org/TR/2001/REC-SVG-20010904/DTD/svg10.dtd">
<svg version="1.0" xmlns="http://www.w3.org/2000/svg"
 width="304.000000pt" height="71.000000pt" viewBox="0 0 304.000000 71.000000"
 preserveAspectRatio="xMidYMid meet">

<g transform="translate(0.000000,71.000000) scale(0.100000,-0.100000)"
fill="#000000" stroke="none">
<path d="M30 505 l0 -165 35 0 c35 0 35 0 35 45 l0 45 46 0 c61 0 109 24 128
65 20 41 20 66 1 111 -19 47 -63 64 -165 64 l-80 0 0 -165z m175 71 c16 -23
11 -54 -9 -68 -6 -4 -30 -8 -53 -8 l-43 0 0 50 0 50 45 0 c36 0 48 -5 60 -24z"/>
<path d="M320 505 l0 -165 40 0 40 0 0 165 0 165 -40 0 -40 0 0 -165z"/>
<path d="M432 638 l3 -33 77 -5 76 -5 -79 -99 c-58 -72 -79 -106 -79 -127 l0
-29 130 0 130 0 0 30 0 30 -80 0 c-44 0 -80 3 -80 6 0 4 34 49 75 102 59 75
75 102 75 129 l0 33 -126 0 -125 0 3 -32z"/>
<path d="M720 635 l0 -34 76 -3 76 -3 -76 -95 c-59 -74 -76 -102 -76 -127 l0
-33 125 0 125 0 0 30 0 29 -81 3 -81 3 81 102 c61 77 81 111 81 133 l0 30
-125 0 -125 0 0 -35z"/>
<path d="M1099 643 c-6 -16 -25 -71 -44 -123 -18 -52 -40 -114 -49 -137 l-15
-43 37 0 c33 0 39 4 49 30 11 29 14 30 73 30 59 0 62 -1 73 -30 10 -26 16 -30
50 -30 27 0 38 4 35 13 -3 6 -29 81 -58 165 l-53 152 -44 0 c-38 0 -45 -3 -54
-27z m74 -116 c9 -30 17 -57 17 -60 0 -4 -18 -7 -40 -7 -22 0 -40 3 -40 7 0
16 34 113 40 113 3 0 14 -24 23 -53z"/>
<path d="M1440 506 l0 -166 30 0 30 0 0 96 c0 52 3 93 8 91 4 -3 25 -46 47
-96 35 -81 42 -91 65 -91 23 0 30 10 65 90 21 50 42 93 47 96 4 3 8 -38 8 -90
l0 -96 35 0 35 0 0 166 0 165 -46 -3 -47 -3 -45 -102 c-25 -57 -48 -103 -52
-103 -3 0 -26 46 -51 103 l-44 102 -43 3 -42 3 0 -165z"/>
<path d="M1945 658 c-51 -144 -105 -302 -105 -309 0 -5 15 -9 34 -9 29 0 36 5
45 30 10 29 12 30 75 30 62 0 64 -1 75 -30 8 -26 15 -30 45 -30 20 0 36 3 36
8 0 4 -25 76 -55 161 -30 85 -55 156 -55 158 0 10 -91 1 -95 -9z m84 -180 c1
-14 -7 -18 -39 -18 -22 0 -40 4 -40 9 0 8 22 75 36 111 7 16 42 -69 43 -102z"/>
<path d="M2180 505 l0 -165 35 0 34 0 3 72 3 72 55 -72 c55 -72 55 -72 103
-72 l48 0 -59 73 c-32 39 -62 77 -65 84 -5 7 20 45 58 92 l66 81 -43 0 c-43 0
-45 -2 -103 -77 l-60 -78 -3 78 -3 77 -34 0 -35 0 0 -165z"/>
<path d="M2480 505 l0 -165 120 0 120 0 0 30 0 30 -80 0 -80 0 0 35 0 35 75 0
75 0 0 35 0 35 -75 0 -75 0 0 30 0 30 80 0 80 0 0 35 0 35 -120 0 -120 0 0
-165z"/>
<path d="M2760 505 l0 -165 35 0 35 0 0 58 0 57 51 -57 c48 -55 53 -58 96 -58
l45 0 -48 57 c-36 42 -45 58 -34 61 8 3 27 18 42 33 50 49 30 146 -33 168 -18
6 -67 11 -110 11 l-79 0 0 -165z m170 80 c7 -8 10 -25 6 -39 -6 -24 -30 -36
-78 -36 -26 0 -28 3 -28 45 l0 45 44 0 c26 0 48 -6 56 -15z"/>
</g>
</svg>
